<?xml version="1.0" standalone="no"?>
<!DOCTYPE svg PUBLIC "-//W3C//DTD SVG 20010904//EN"
 "http://www.w3.org/TR/2001/REC-SVG-20010904/DTD/svg10.dtd">
<svg version="1.0" xmlns="http://www.w3.org/2000/svg"
 width="500.000000pt" height="500.000000pt" viewBox="0 0 500.000000 500.000000"
 preserveAspectRatio="xMidYMid meet">

<g transform="translate(0.000000,500.000000) scale(0.100000,-0.100000)"
fill="#000000" stroke="none">
<path d="M4207 2503 c-3 -5 -26 -78 -52 -163 -26 -85 -50 -161 -52 -167 -3 -8
4 -13 21 -13 21 0 27 7 36 38 5 20 30 99 54 175 l44 137 -24 0 c-12 0 -25 -3
-27 -7z"/>
<path d="M948 2436 c-59 -29 -104 -56 -100 -60 4 -5 0 -6 -8 -5 -19 5 -80 -21
-80 -33 0 -5 26 -21 58 -35 31 -14 104 -47 161 -74 57 -27 105 -49 106 -49 2
0 8 14 14 31 l10 30 -100 46 c-55 26 -98 51 -96 57 2 6 41 26 88 44 46 18 89
38 95 45 16 17 0 57 -23 56 -10 0 -66 -24 -125 -53z"/>
<path d="M4340 2465 c-6 -15 -10 -30 -10 -34 0 -4 45 -28 101 -54 55 -25 98
-50 95 -55 -3 -5 -27 -17 -53 -27 -147 -54 -161 -66 -130 -109 12 -16 21 -14
124 37 62 30 109 58 105 61 -3 4 1 4 11 0 10 -3 17 -1 17 5 0 6 3 10 8 9 11
-4 72 23 72 32 0 4 -39 24 -87 45 -49 21 -123 55 -166 76 l-77 39 -10 -25z"/>
<path d="M1210 2340 c0 -67 4 -110 10 -110 6 0 10 17 10 38 0 21 6 46 13 55
11 15 15 11 42 -38 18 -35 36 -55 47 -55 15 0 11 11 -22 65 l-39 64 35 43 c25
29 32 44 23 47 -7 2 -30 -16 -51 -40 -39 -46 -44 -43 -39 19 1 14 -4 22 -14
22 -13 0 -15 -18 -15 -110z"/>
<path d="M1400 2339 c0 -78 3 -110 11 -107 7 2 13 26 15 52 5 57 17 76 50 76
23 0 24 -3 24 -65 0 -52 3 -65 15 -65 13 0 15 13 13 72 -3 69 -4 73 -30 82
-22 8 -32 6 -47 -9 -19 -16 -21 -16 -27 -1 -3 9 -4 30 0 46 4 22 2 30 -9 30
-12 0 -15 -20 -15 -111z"/>
<path d="M1800 2435 c0 -8 7 -15 15 -15 12 0 15 -16 15 -80 0 -64 -3 -80 -15
-80 -8 0 -15 -7 -15 -15 0 -11 12 -15 50 -15 38 0 50 4 50 15 0 8 -9 15 -20
15 -19 0 -20 7 -20 95 l0 95 -30 0 c-20 0 -30 -5 -30 -15z"/>
<path d="M2430 2440 c0 -6 7 -13 15 -16 8 -4 15 -15 15 -26 0 -16 -5 -18 -33
-13 -49 9 -82 -20 -82 -74 0 -57 22 -75 90 -77 l55 -2 0 109 0 109 -30 0 c-16
0 -30 -5 -30 -10z m28 -127 c3 -34 -1 -44 -17 -53 -44 -23 -86 33 -61 80 9 16
19 20 43 18 30 -3 32 -6 35 -45z"/>
<path d="M2732 2343 c2 -74 7 -108 16 -111 9 -3 12 15 12 68 0 72 13 87 25 29
9 -38 26 -33 40 12 9 32 10 29 13 -38 2 -56 6 -73 17 -73 12 0 15 20 15 110 0
101 -1 110 -19 110 -15 0 -22 -12 -31 -51 -14 -56 -21 -55 -39 9 -9 32 -17 42
-32 42 -19 0 -20 -5 -17 -107z"/>
<path d="M3120 2340 c0 -67 4 -110 10 -110 6 0 10 6 10 13 1 37 13 94 22 105
6 6 21 12 34 12 23 0 24 -3 24 -65 0 -51 3 -65 15 -65 12 0 15 14 15 68 0 40
-5 73 -12 80 -17 17 -53 15 -68 -3 -19 -23 -28 -10 -24 35 3 30 0 40 -11 40
-12 0 -15 -20 -15 -110z"/>
<path d="M3960 2435 c0 -8 7 -15 15 -15 8 0 15 -9 15 -20 0 -18 -4 -20 -33
-15 -49 9 -82 -20 -82 -74 0 -57 22 -75 90 -77 l55 -2 0 109 0 109 -30 0 c-20
0 -30 -5 -30 -15z m28 -122 c3 -34 -1 -44 -17 -53 -44 -23 -86 33 -61 80 9 16
19 20 43 18 30 -3 32 -6 35 -45z"/>
<path d="M1605 2365 c-35 -34 -34 -86 1 -114 72 -57 162 16 120 97 -24 47 -83
56 -121 17z m95 -26 c15 -27 5 -66 -21 -79 -45 -25 -94 51 -57 88 20 20 66 15
78 -9z"/>
<path d="M1987 2370 c-38 -30 -38 -90 -1 -119 58 -45 129 -13 129 58 0 48 -18
70 -66 77 -26 4 -41 0 -62 -16z m93 -31 c15 -27 5 -66 -21 -79 -45 -25 -94 51
-57 88 20 20 66 15 78 -9z"/>
<path d="M2175 2365 c-50 -49 -15 -135 55 -135 19 0 40 9 55 25 16 15 25 36
25 55 0 19 -9 40 -25 55 -15 16 -36 25 -55 25 -19 0 -40 -9 -55 -25z m93 -17
c21 -21 14 -66 -13 -84 -23 -15 -27 -15 -50 0 -17 11 -25 26 -25 44 0 35 16
52 50 52 14 0 31 -5 38 -12z"/>
<path d="M2946 2369 c-56 -44 -22 -139 49 -139 44 0 75 32 75 78 0 43 -7 55
-37 71 -32 16 -57 14 -87 -10z m95 -35 c12 -34 3 -63 -24 -73 -50 -19 -87 21
-68 72 9 22 17 27 46 27 29 0 37 -5 46 -26z"/>
<path d="M3327 2383 c-27 -7 -14 -29 14 -25 49 8 69 4 69 -12 0 -8 -16 -15
-40 -19 -49 -6 -70 -22 -70 -51 0 -42 46 -60 91 -36 13 7 19 7 19 0 0 -5 7
-10 15 -10 24 0 21 121 -3 143 -18 16 -56 20 -95 10z m67 -79 c24 -9 19 -33
-9 -44 -29 -11 -55 -4 -55 16 0 12 11 20 47 33 1 1 8 -2 17 -5z"/>
<path d="M3490 2310 c0 -64 3 -80 15 -80 12 0 15 14 15 65 0 51 3 65 15 65 12
0 15 -14 15 -65 0 -51 3 -65 15 -65 12 0 15 13 15 59 0 59 14 86 31 60 5 -8 9
-38 9 -66 0 -29 5 -53 10 -53 6 0 10 32 10 75 0 59 -3 77 -16 82 -8 3 -20 1
-26 -5 -7 -7 -16 -7 -28 1 -14 8 -22 8 -34 -2 -11 -9 -16 -10 -16 -2 0 6 -7
11 -15 11 -12 0 -15 -16 -15 -80z"/>
<path d="M3705 2365 c-65 -64 11 -163 99 -129 9 3 16 13 16 21 0 10 -6 12 -22
7 -46 -16 -87 -3 -88 29 0 4 29 7 65 7 70 0 74 4 50 49 -24 48 -81 56 -120 16z
m93 -27 c3 -15 -4 -18 -42 -18 -25 0 -46 4 -46 8 0 34 82 42 88 10z"/>
</g>
</svg>
